<svg width="1024" height="1024" viewBox="0 0 1024 1024" fill="none" xmlns="http://www.w3.org/2000/svg">
  <ellipse cx="512" cy="522" rx="342" ry="342" fill="#7BB2CB" fill-opacity="0.18"/>
  <circle cx="512" cy="482" r="332" fill="#7BB2CB"/>
  <circle cx="512" cy="502" r="254" fill="#FAF7F1"/>
  <path d="M210 275C275 185 401 132 512 132C623 132 749 185 814 275" stroke="#497086" stroke-width="28" stroke-linecap="round"/>
  <rect x="140" y="360" width="114" height="200" rx="55" fill="#497086"/>
  <rect x="770" y="360" width="114" height="200" rx="55" fill="#497086"/>
  <rect x="168" y="392" width="58" height="136" rx="28" fill="#E2EEF4"/>
  <rect x="798" y="392" width="58" height="136" rx="28" fill="#E2EEF4"/>
  <circle cx="421" cy="477" r="33" fill="#28343D"/>
  <circle cx="603" cy="477" r="33" fill="#28343D"/>
  <circle cx="415" cy="471" r="9" fill="white" fill-opacity="0.7"/>
  <circle cx="597" cy="471" r="9" fill="white" fill-opacity="0.7"/>
  <ellipse cx="346" cy="586" rx="42" ry="34" fill="#F59D89" fill-opacity="0.38"/>
  <ellipse cx="678" cy="586" rx="42" ry="34" fill="#F59D89" fill-opacity="0.38"/>
  <ellipse cx="512" cy="556" rx="38" ry="28" fill="#28343D"/>
  <path d="M442 603C460 636 486 652 512 652C538 652 564 636 582 603" stroke="#28343D" stroke-width="10" stroke-linecap="round"/>
  <circle cx="425" cy="597" r="5" fill="#50606A" fill-opacity="0.6"/>
  <circle cx="453" cy="597" r="5" fill="#50606A" fill-opacity="0.6"/>
  <circle cx="425" cy="625" r="5" fill="#50606A" fill-opacity="0.6"/>
  <circle cx="453" cy="625" r="5" fill="#50606A" fill-opacity="0.6"/>
  <circle cx="571" cy="597" r="5" fill="#50606A" fill-opacity="0.6"/>
  <circle cx="599" cy="597" r="5" fill="#50606A" fill-opacity="0.6"/>
  <circle cx="571" cy="625" r="5" fill="#50606A" fill-opacity="0.6"/>
  <circle cx="599" cy="625" r="5" fill="#50606A" fill-opacity="0.6"/>
  <path d="M790 500C814 530 824 566 816 612C803 631 788 646 770 658" stroke="#497086" stroke-width="18" stroke-linecap="round" stroke-linejoin="round"/>
  <rect x="716" y="640" width="92" height="76" rx="30" fill="#F59D89"/>
  <rect x="734" y="658" width="56" height="38" rx="16" fill="white" fill-opacity="0.25"/>
</svg>
